<svg xmlns="http://www.w3.org/2000/svg" width="37.74" height="28.305" viewBox="0 0 37.74 28.305"><g transform="translate(0 -64)"><g transform="translate(0 64)"><path d="M7.192,66.3c5.18,4.387,14.268,12.1,16.94,14.51a1.578,1.578,0,0,0,2.283,0C29.088,78.4,38.177,70.683,43.357,66.3a.786.786,0,0,0,.111-1.085A3.122,3.122,0,0,0,41,64H9.549a3.122,3.122,0,0,0-2.468,1.212A.786.786,0,0,0,7.192,66.3Z" transform="translate(-6.404 -64)" fill="#fff"/><path d="M37.284,126.485a.783.783,0,0,0-.838.114c-5.744,4.87-13.075,11.111-15.382,13.19a3.184,3.184,0,0,1-4.389,0c-2.459-2.215-10.691-9.214-15.38-13.188A.786.786,0,0,0,0,127.2v19.773a3.148,3.148,0,0,0,3.145,3.145H34.6a3.148,3.148,0,0,0,3.145-3.145V127.2A.786.786,0,0,0,37.284,126.485Z" transform="translate(0 -121.811)" fill="#fff"/></g></g></svg>