<svg xmlns="http://www.w3.org/2000/svg" width="38.586" height="33.371" viewBox="0 0 38.586 33.371"><path d="M38.567,42.314Q38.309,47.948,30.7,57.74,22.828,67.964,17.383,67.966q-3.375,0-5.708-6.228-1.557-5.71-3.114-11.419-1.732-6.226-3.718-6.228a11.938,11.938,0,0,0-3.028,1.817L0,43.57q2.856-2.509,5.63-5.021,3.81-3.29,5.719-3.464,4.5-.433,5.544,6.157,1.125,7.11,1.56,8.842,1.3,5.9,2.859,5.9,1.21,0,3.639-3.828t2.6-5.825q.346-3.3-2.6-3.3a7.232,7.232,0,0,0-2.857.632Q24.939,34.34,32.961,34.6,38.908,34.776,38.567,42.314Z" transform="translate(0 -34.594)" fill="#fff"/></svg>