<svg xmlns="http://www.w3.org/2000/svg" width="53.238" height="33.36" viewBox="0 0 53.238 33.36"><path d="M14.9,122.754a9.238,9.238,0,0,0,2.02-.205,4.78,4.78,0,0,0,1.7-.694,3.485,3.485,0,0,0,1.172-1.305,4.539,4.539,0,0,0,.431-2.123,4.277,4.277,0,0,0-1.42-3.614,6.082,6.082,0,0,0-3.76-1.075H7.206v9.017Zm-.4-13.939a5.222,5.222,0,0,0,3.173-.917,3.443,3.443,0,0,0,1.23-2.979,3.893,3.893,0,0,0-.4-1.88,3,3,0,0,0-1.111-1.139,4.513,4.513,0,0,0-1.586-.575,9.706,9.706,0,0,0-1.855-.161H7.206v7.651Zm.933-13.23A20.064,20.064,0,0,1,19.708,96a9.3,9.3,0,0,1,3.308,1.351,6.341,6.341,0,0,1,2.138,2.5,8.822,8.822,0,0,1,.749,3.842,7.173,7.173,0,0,1-1.123,4.127,8.155,8.155,0,0,1-3.339,2.7,7.823,7.823,0,0,1,4.5,3.05,10.1,10.1,0,0,1,.528,9.549,8.353,8.353,0,0,1-2.591,2.965,11.4,11.4,0,0,1-3.725,1.7,16.689,16.689,0,0,1-4.282.551H0V95.585H15.436Z" transform="translate(0.003 -95.585)" fill="#fff"/><path d="M299.791,182.278a4.875,4.875,0,0,0-3.683-1.319,5.607,5.607,0,0,0-2.592.532,5.214,5.214,0,0,0-1.649,1.307,4.674,4.674,0,0,0-.873,1.671,7.414,7.414,0,0,0-.3,1.563h10.6A6.34,6.34,0,0,0,299.791,182.278Zm-7.484,12.459a6.637,6.637,0,0,0,7.614.437,4.187,4.187,0,0,0,1.74-2.1H307.4a10.884,10.884,0,0,1-4.229,6.119,12.311,12.311,0,0,1-6.865,1.845,13.676,13.676,0,0,1-5.058-.9,10.761,10.761,0,0,1-3.83-2.55,11.666,11.666,0,0,1-2.408-3.951,14.49,14.49,0,0,1-.851-5.054,13.907,13.907,0,0,1,.876-4.96,11.615,11.615,0,0,1,2.484-3.973,11.78,11.78,0,0,1,3.841-2.645,12.343,12.343,0,0,1,4.946-.964,11.229,11.229,0,0,1,5.269,1.172,10.52,10.52,0,0,1,3.7,3.143,12.881,12.881,0,0,1,2.084,4.5,16.822,16.822,0,0,1,.454,5.279H290.7A6.642,6.642,0,0,0,292.307,194.737Z" transform="translate(-254.61 -167.676)" fill="#fff"/><rect width="13.274" height="3.231" transform="translate(34.754 2.198)" fill="#fff"/></svg>