<svg id="dribbble" xmlns="http://www.w3.org/2000/svg" width="33.361" height="33.361" viewBox="0 0 33.361 33.361">
  <path id="Path_11" data-name="Path 11" d="M333.023,274.869a67.349,67.349,0,0,1,3.64,12.754,16.813,16.813,0,0,0,3.136-2.468,16.557,16.557,0,0,0,4.655-9.016,20.778,20.778,0,0,0-11.432-1.27Zm0,0" transform="translate(-311.324 -256.68)" fill="#fff"/>
  <path id="Path_12" data-name="Path 12" d="M195.238,4.9l-.014-.014A16.721,16.721,0,0,0,178.371.778a67.587,67.587,0,0,1,6.815,10.359A38.715,38.715,0,0,0,195.238,4.9Zm0,0" transform="translate(-166.749 0)" fill="#fff"/>
  <path id="Path_13" data-name="Path 13" d="M307.28,97.859a40.379,40.379,0,0,1-10.46,6.511q.844,1.7,1.6,3.45a22.852,22.852,0,0,1,4.278-.4,22.6,22.6,0,0,1,8.13,1.5c.011-.25.018-.5.018-.754A16.554,16.554,0,0,0,307.28,97.859Zm0,0" transform="translate(-277.48 -91.483)" fill="#fff"/>
  <path id="Path_14" data-name="Path 14" d="M98.426,296.993a16.722,16.722,0,0,0,17.1,2.076,65.562,65.562,0,0,0-3.767-13.284A20.87,20.87,0,0,0,98.426,296.993Zm0,0" transform="translate(-92.013 -267.164)" fill="#fff"/>
  <path id="Path_15" data-name="Path 15" d="M16.365,213.188a22.644,22.644,0,0,1,2.621-.923q-.7-1.61-1.489-3.175a40.365,40.365,0,0,1-14.112,2.521q-1.7,0-3.37-.138c-.009.224-.015.448-.015.673a16.571,16.571,0,0,0,4.886,11.795l0,0a22.808,22.808,0,0,1,11.476-10.756Zm0,0" transform="translate(0 -195.466)" fill="#fff"/>
  <path id="Path_16" data-name="Path 16" d="M19.518,33.862a66.393,66.393,0,0,0-6.905-10.335A16.734,16.734,0,0,0,3.141,36.054q1.573.129,3.179.13A38.461,38.461,0,0,0,19.518,33.862Zm0,0" transform="translate(-2.936 -21.994)" fill="#fff"/>
</svg>
