<svg xmlns="http://www.w3.org/2000/svg" width="34.216" height="33.379" viewBox="0 0 34.216 33.379"><g transform="translate(0 -5.365)"><g transform="translate(0 5.365)"><path d="M31.921,13.886A17.034,17.034,0,0,0,25.7,7.659a16.733,16.733,0,0,0-8.587-2.294A16.735,16.735,0,0,0,8.521,7.659a17.032,17.032,0,0,0-6.226,6.226A16.735,16.735,0,0,0,0,22.472,16.626,16.626,0,0,0,3.263,32.53a16.756,16.756,0,0,0,8.431,6.181,1,1,0,0,0,.891-.156.871.871,0,0,0,.29-.668q0-.067-.011-1.2T12.853,34.7l-.512.089a6.536,6.536,0,0,1-1.236.078,9.419,9.419,0,0,1-1.548-.156,3.459,3.459,0,0,1-1.493-.668,2.826,2.826,0,0,1-.98-1.37l-.223-.513a5.566,5.566,0,0,0-.7-1.136,2.688,2.688,0,0,0-.969-.846l-.156-.112a1.635,1.635,0,0,1-.29-.268,1.222,1.222,0,0,1-.2-.312q-.067-.156.111-.257a1.445,1.445,0,0,1,.646-.1l.445.067a3.252,3.252,0,0,1,1.1.535,3.6,3.6,0,0,1,1.08,1.158,3.927,3.927,0,0,0,1.236,1.392,2.623,2.623,0,0,0,1.459.479,6.334,6.334,0,0,0,1.27-.111,4.43,4.43,0,0,0,1-.334,3.609,3.609,0,0,1,1.091-2.295,15.253,15.253,0,0,1-2.283-.4,9.091,9.091,0,0,1-2.094-.869,6,6,0,0,1-1.793-1.492,7.172,7.172,0,0,1-1.169-2.339,11.123,11.123,0,0,1-.457-3.341,6.5,6.5,0,0,1,1.76-4.589,5.988,5.988,0,0,1,.156-4.544,3.121,3.121,0,0,1,1.916.3,13.394,13.394,0,0,1,1.86.858q.591.356.947.6a16.088,16.088,0,0,1,8.554,0l.846-.534a11.988,11.988,0,0,1,2.049-.98,2.919,2.919,0,0,1,1.8-.245,5.931,5.931,0,0,1,.178,4.544,6.5,6.5,0,0,1,1.76,4.589,11.247,11.247,0,0,1-.457,3.352,6.894,6.894,0,0,1-1.18,2.339,6.228,6.228,0,0,1-1.8,1.481,9.108,9.108,0,0,1-2.094.869,15.237,15.237,0,0,1-2.283.4,3.968,3.968,0,0,1,1.158,3.163v4.7a.887.887,0,0,0,.279.668.967.967,0,0,0,.88.156,16.753,16.753,0,0,0,8.432-6.181,16.63,16.63,0,0,0,3.263-10.058A16.748,16.748,0,0,0,31.921,13.886Z" transform="translate(0 -5.365)" fill="#fff"/></g></g></svg>