<svg xmlns="http://www.w3.org/2000/svg" width="33.361" height="33.361" viewBox="0 0 33.361 33.361"><path d="M16.68.162c-4.53,0-5.1.019-6.877.1a12.244,12.244,0,0,0-4.049.775A8.176,8.176,0,0,0,2.8,2.961,8.176,8.176,0,0,0,.876,5.916,12.243,12.243,0,0,0,.1,9.965C.019,11.744,0,12.312,0,16.842s.019,5.1.1,6.877a12.243,12.243,0,0,0,.775,4.049A8.177,8.177,0,0,0,2.8,30.723a8.176,8.176,0,0,0,2.954,1.924,12.244,12.244,0,0,0,4.049.775c1.779.081,2.347.1,6.877.1s5.1-.019,6.877-.1a12.243,12.243,0,0,0,4.049-.775,8.529,8.529,0,0,0,4.878-4.878,12.243,12.243,0,0,0,.775-4.049c.081-1.779.1-2.347.1-6.877s-.019-5.1-.1-6.877a12.243,12.243,0,0,0-.775-4.049,8.176,8.176,0,0,0-1.924-2.954,8.177,8.177,0,0,0-2.954-1.924A12.243,12.243,0,0,0,23.558.262C21.779.181,21.21.162,16.68.162Zm0,3.006c4.454,0,4.981.017,6.74.1a9.232,9.232,0,0,1,3.1.574,5.168,5.168,0,0,1,1.918,1.248A5.168,5.168,0,0,1,29.684,7a9.228,9.228,0,0,1,.574,3.1c.08,1.759.1,2.286.1,6.74s-.017,4.981-.1,6.74a9.228,9.228,0,0,1-.574,3.1,5.524,5.524,0,0,1-3.166,3.166,9.228,9.228,0,0,1-3.1.574c-1.759.08-2.286.1-6.74.1s-4.982-.017-6.74-.1a9.228,9.228,0,0,1-3.1-.574A5.168,5.168,0,0,1,4.925,28.6,5.167,5.167,0,0,1,3.677,26.68a9.229,9.229,0,0,1-.574-3.1c-.08-1.759-.1-2.286-.1-6.74s.017-4.981.1-6.74A9.23,9.23,0,0,1,3.677,7,5.168,5.168,0,0,1,4.925,5.086,5.169,5.169,0,0,1,6.843,3.839a9.232,9.232,0,0,1,3.1-.574C11.7,3.184,12.227,3.167,16.68,3.167Z" transform="translate(0 -0.162)" fill="#fff"/><path d="M133.106,138.827a5.56,5.56,0,1,1,5.56-5.56A5.56,5.56,0,0,1,133.106,138.827Zm0-14.126a8.566,8.566,0,1,0,8.566,8.566A8.566,8.566,0,0,0,133.106,124.7Z" transform="translate(-116.425 -116.587)" fill="#fff"/><path d="M365.936,90.79a2,2,0,1,1-2-2A2,2,0,0,1,365.936,90.79Z" transform="translate(-338.35 -83.014)" fill="#fff"/></svg>