<svg xmlns="http://www.w3.org/2000/svg" width="34.926" height="33.379" viewBox="0 0 34.926 33.379"><g transform="translate(0 0)"><rect width="7.503" height="22.533" transform="translate(0.432 10.846)" fill="#fff"/><path d="M172.084,141.912a8.075,8.075,0,0,0-6.253-2.581,9.012,9.012,0,0,0-2.6.353,5.908,5.908,0,0,0-1.978.989,8.471,8.471,0,0,0-2.171,2.385v-3.2H151.6l.023,1.092q.023,1.092.023,6.73t-.046,14.711h7.481V149.813a5.492,5.492,0,0,1,.25-1.842,4.83,4.83,0,0,1,1.444-1.944,3.681,3.681,0,0,1,2.4-.785,3.235,3.235,0,0,1,2.876,1.353,6.579,6.579,0,0,1,.921,3.74v12.051h7.481V149.472Q174.448,144.492,172.084,141.912Z" transform="translate(-139.524 -129.008)" fill="#fff"/><path d="M4.229,9.708a4.281,4.281,0,0,0-3.058,1.1A3.661,3.661,0,0,0,0,13.6,3.726,3.726,0,0,0,1.137,16.37a4.1,4.1,0,0,0,3,1.114h.045A4.284,4.284,0,0,0,7.265,16.37,3.6,3.6,0,0,0,8.413,13.6a3.793,3.793,0,0,0-1.16-2.785A4.158,4.158,0,0,0,4.229,9.708Z" transform="translate(0 -9.708)" fill="#fff"/></g></svg>