<?xml version="1.0" encoding="UTF-8"?>
<svg width="211px" height="212px" viewBox="0 0 211 212" version="1.1" xmlns="http://www.w3.org/2000/svg" xmlns:xlink="http://www.w3.org/1999/xlink">
    <!-- Generator: Sketch 58 (84663) - https://sketch.com -->
    <title>Group 7</title>
    <desc>Created with Sketch.</desc>
    <g id="HFP---Validated" stroke="none" stroke-width="1" fill="none" fill-rule="evenodd">
        <g id="Proposta-Final-Copy-2" transform="translate(-752.000000, -2537.000000)">
            <g id="Group-7" transform="translate(756.000000, 2541.000000)">
                <ellipse id="Oval-Copy-4" stroke="#262525" stroke-width="7.2" cx="101.50974" cy="102.131783" rx="101.50974" ry="102.131783"></ellipse>
                <g id="pipe" transform="translate(49.000000, 40.000000)" fill="#262525" fill-rule="nonzero">
                    <path d="M53.2982185,81 C54.4026957,81 55.2981913,80.0049917 55.2981913,78.7777786 L55.2981913,43.2222357 C55.3020975,42.6428086 55.0950691,42.0872533 54.7239804,41.6803526 C54.3538681,41.2441547 53.8372737,40.9978442 53.2982185,41 C52.1937412,41 51.2982456,41.9950225 51.2982456,43.2222357 L51.2982456,78.7777786 C51.2982456,80.0049917 52.1937412,81 53.2982185,81 Z" id="Path"></path>
                    <polygon id="Path" points="70.2982456 102 102.298246 102 102.298246 124 70.2982456 124"></polygon>
                    <path d="M102.298246,88 L102.298246,70.3157895 C102.282441,56.8928865 91.6647135,46.0161904 78.5614035,46 L61.2982456,46 L61.2982456,76.9473684 L65.6140351,76.9473684 C69.1891018,76.9473684 72.0877193,79.9166839 72.0877193,83.5789474 L72.0877193,88 L102.298246,88 Z" id="Path"></path>
                    <path d="M105.634912,96.423756 C106.059147,96.0536468 106.2993,95.5390091 106.298246,94.999958 C106.298246,93.8954889 105.328109,93 104.131576,93 L69.4649121,93 C68.2683789,93 67.2982456,93.8954889 67.2982456,94.999958 C67.2982456,96.104427 68.2683789,96.9999159 69.4649121,96.9999159 L104.131576,96.9999159 C104.696517,97.0047986 105.2403,96.7967952 105.634912,96.423756 Z" id="Path"></path>
                    <path d="M28.0350877,77 L45.2982456,77 L45.2982456,46.0526316 L40.9824561,46.0526316 C37.4073894,46.0526316 34.5087719,43.0833161 34.5087719,39.4210526 L34.5087719,35 L4.29824561,35 L4.29824561,52.6842105 C4.31405057,66.1071135 14.9317777,76.9838096 28.0350877,77 Z" id="Path"></path>
                    <path d="M37.1315791,31 C38.3281123,31 39.2982456,30.1045192 39.2982456,29.0000603 C39.2982456,27.8956013 38.3281123,27.0001205 37.1315791,27.0001205 L2.46491555,27.0001205 C1.89997406,26.9942612 1.35724957,27.2022629 0.963694916,27.5762752 C0.53840212,27.9454045 0.297191204,28.461014 0.298245614,29.0000603 C0.298245614,30.1045192 1.26838239,31 2.46491555,31 L37.1315791,31 Z" id="Path"></path>
                    <polygon id="Path" points="4.29824561 0 36.2982456 0 36.2982456 22 4.29824561 22"></polygon>
                </g>
            </g>
        </g>
    </g>
</svg>