<?xml version="1.0" encoding="UTF-8"?>
<svg width="211px" height="212px" viewBox="0 0 211 212" version="1.1" xmlns="http://www.w3.org/2000/svg" xmlns:xlink="http://www.w3.org/1999/xlink">
    <!-- Generator: Sketch 58 (84663) - https://sketch.com -->
    <title>Group 8</title>
    <desc>Created with Sketch.</desc>
    <g id="HFP---Validated" stroke="none" stroke-width="1" fill="none" fill-rule="evenodd">
        <g id="Proposta-Final-Copy-2" transform="translate(-1061.000000, -2537.000000)">
            <g id="Group-8" transform="translate(1065.000000, 2541.000000)">
                <path d="M66.3960277,168.897492 C66.0021264,168.897492 65.6060246,168.792173 65.249533,168.574951 C64.3230948,168.008859 63.9489987,166.850344 64.3693067,165.852002 L89.0266449,107.461092 L66.3982282,107.461092 C65.634632,107.461092 64.9282504,107.066143 64.5255469,106.418867 C64.1250439,105.77159 64.0876343,104.964141 64.428722,104.286146 L97.4372068,38.4614309 C97.811303,37.7176117 98.5726987,37.248062 99.4067131,37.248062 L134.615764,37.248062 C135.41677,37.248062 136.15616,37.6825051 136.543459,38.3846354 C136.930759,39.0845716 136.904352,39.9402929 136.475242,40.6160933 L110.739626,81.1312055 L136.816329,81.1312055 C137.672349,81.1312055 138.449149,81.627085 138.810042,82.3994283 C139.170935,83.1739658 139.052104,84.0867352 138.499762,84.740594 L68.081661,168.118567 C67.6503501,168.627611 67.02759,168.897492 66.3960277,168.897492" id="Path" fill="#262525" fill-rule="nonzero"></path>
                <ellipse id="Oval-Copy-4" stroke="#262525" stroke-width="7.2" cx="101.50974" cy="102.131783" rx="101.50974" ry="102.131783"></ellipse>
            </g>
        </g>
    </g>
</svg>