<?xml version="1.0" encoding="UTF-8"?>
<svg width="92px" height="92px" viewBox="0 0 92 92" version="1.1" xmlns="http://www.w3.org/2000/svg" xmlns:xlink="http://www.w3.org/1999/xlink">
    <!-- Generator: Sketch 58 (84663) - https://sketch.com -->
    <title>Group 13</title>
    <desc>Created with Sketch.</desc>
    <g id="HFP---Validated" stroke="none" stroke-width="1" fill="none" fill-rule="evenodd">
        <g id="Proposta-Final-Copy-2" transform="translate(-519.000000, -6558.000000)">
            <g id="Group-13" transform="translate(522.000000, 6561.000000)">
                <circle id="Oval-Copy-4" stroke="#262525" stroke-width="4.62000041" cx="43" cy="43" r="43"></circle>
                <path d="M63.7209864,55.7012782 L59.1161232,51.0963192 C57.7650888,49.745284 55.7214665,49.3361418 53.9762354,50.1143225 C53.0979928,50.5058722 52.1695295,51.0555566 51.3862411,51.8389387 C46.1230277,57.1021552 28.8977956,39.8770109 34.1609173,34.6136982 C34.9443936,33.8304094 35.4941695,32.9018508 35.8858138,32.0237972 C36.6638046,30.2785651 36.2547588,28.2349424 34.9035364,26.8838133 L30.2987672,22.2789467 C28.0727061,20.0528843 24.3475981,20.6449372 22.8809912,23.4308016 C21.3467617,26.3454799 20.1915971,30.4709345 21.463848,35.5240972 C24.1798187,46.3106209 39.6893263,61.8200445 50.4758438,64.5361096 C55.5290984,65.8084565 59.6544551,64.653196 62.5691331,63.1189668 C65.3550875,61.6524531 65.9471407,57.9274369 63.7209864,55.7012782 Z" id="Path" fill="#262525" fill-rule="nonzero"></path>
            </g>
        </g>
    </g>
</svg>