<?xml version="1.0" encoding="UTF-8"?>
<svg width="92px" height="92px" viewBox="0 0 92 92" version="1.1" xmlns="http://www.w3.org/2000/svg" xmlns:xlink="http://www.w3.org/1999/xlink">
    <!-- Generator: Sketch 58 (84663) - https://sketch.com -->
    <title>Group 15</title>
    <desc>Created with Sketch.</desc>
    <g id="HFP---Validated" stroke="none" stroke-width="1" fill="none" fill-rule="evenodd">
        <g id="Proposta-Final-Copy-2" transform="translate(-1081.000000, -6558.000000)">
            <g id="Group-15" transform="translate(1084.000000, 6561.000000)">
                <circle id="Oval-Copy-8" stroke="#262525" stroke-width="4.62000041" cx="43" cy="43" r="43"></circle>
                <path d="M43.3873874,17.8198198 C29.2668097,17.8198198 17.8198198,29.2668097 17.8198198,43.3873874 C17.8198198,57.507965 29.2668097,68.954955 43.3873874,68.954955 C57.507965,68.954955 68.954955,57.507965 68.954955,43.3873874 C68.954955,36.6064469 66.2612368,30.103236 61.4663878,25.308387 C56.6715388,20.513538 50.1683279,17.8198198 43.3873874,17.8198198 Z M56.3268686,45.7117117 L43.6074655,45.7117117 C42.202519,45.7117117 41.0635849,44.5771017 41.0635849,43.177525 L41.0635849,27.4467397 C41.037016,26.1104459 42.0280396,24.9700654 43.3594371,24.80488 C44.0759505,24.7349456 44.7886577,24.9707314 45.3208245,25.4537682 C45.8529914,25.936805 46.1547771,26.6218534 46.1513461,27.339038 L46.1513461,39.3762881 C46.1513461,40.0760765 46.7208132,40.643367 47.4232864,40.643367 L56.2187537,40.643367 C57.5601743,40.6168998 58.7049301,41.6041357 58.8707493,42.9304446 C58.940952,43.6442195 58.7042616,44.3542027 58.2193716,44.8843356 C57.7344815,45.4144684 57.0468048,45.7151007 56.3268686,45.7117117 Z" id="Shape" fill="#262525" fill-rule="nonzero"></path>
            </g>
        </g>
    </g>
</svg>