<?xml version="1.0" encoding="UTF-8"?>
<svg width="211px" height="212px" viewBox="0 0 211 212" version="1.1" xmlns="http://www.w3.org/2000/svg" xmlns:xlink="http://www.w3.org/1999/xlink">
    <!-- Generator: Sketch 58 (84663) - https://sketch.com -->
    <title>Group 4</title>
    <desc>Created with Sketch.</desc>
    <g id="HFP---Validated" stroke="none" stroke-width="1" fill="none" fill-rule="evenodd">
        <g id="Proposta-Final-Copy-2" transform="translate(-165.000000, -2537.000000)">
            <g id="Group-4" transform="translate(169.000000, 2541.000000)">
                <ellipse id="Oval-Copy-6" stroke="#262525" stroke-width="7.2" cx="101.50974" cy="102.131783" rx="101.50974" ry="102.131783"></ellipse>
                <g id="screwdriver-and-wrench-crossed" transform="translate(47.000000, 47.000000)" fill="#262525" fill-rule="nonzero">
                    <path d="M3.0526813,93.2152413 C-1.01756043,97.2862969 -1.01756043,103.879195 3.0526813,107.950251 C5.08780217,109.985778 7.75491409,111 10.4222545,111 C13.0895949,111 15.7567068,109.985778 17.7918277,107.950251 L52,73.7281533 L37.2608536,59 L3.0526813,93.2152413 Z" id="Path"></path>
                    <polygon id="Path" points="88.3874365 29.9317917 103.229627 22.2601473 111 7.24248372 103.755421 0 88.7402421 7.77517991 81.0527217 22.5991979 63 40.6674062 70.3208302 48"></polygon>
                    <path d="M91.5819433,69.5136094 L90.1804968,69.3748574 C87.6414161,69.3748574 85.2340134,69.8951774 82.9863587,70.7276893 L40.2720198,28.0066798 C41.1045352,25.7590344 41.6248574,23.3516416 41.6248574,20.8125713 L41.4861048,19.4111305 C40.7508075,8.58162844 31.8291087,0 20.8124287,0 C17.6071987,0 14.6032513,0.78390314 11.8907299,2.08127995 L25.7171494,15.9076426 C26.4456004,16.6360906 26.9451552,17.496216 27.2781158,18.4051785 C28.1868538,20.8609519 27.6943735,23.7332096 25.7171494,25.7172718 C24.3643118,27.0701038 22.5883703,27.7499429 20.8124287,27.7499429 C19.9938342,27.7499429 19.182086,27.5696566 18.405026,27.2782318 C17.496288,26.9313518 16.6359308,26.4457198 15.9074798,25.7104255 L2.08128851,11.8909092 C0.783906363,14.6034195 0,17.6073545 0,20.8125713 C0,31.829206 8.58166372,40.7508681 19.4112103,41.4861624 L20.8126569,41.6249144 C23.3517376,41.6249144 25.7591403,41.1045944 28.0067949,40.279157 L70.7140593,82.9933202 C69.8954648,85.2409656 69.3751426,87.6483584 69.3751426,90.1874287 L69.5207415,91.5888695 C70.2423462,102.425218 79.1708913,111 90.1875713,111 C93.3928013,111 96.4035951,110.230018 99.1092701,108.91872 L85.2828506,95.0923574 C84.561246,94.3707557 84.0548448,93.503784 83.7079633,92.601896 C82.7992253,90.1461226 83.2917056,87.2670186 85.2828506,85.2829564 C86.6217673,83.9301244 88.4116297,83.2502853 90.1875713,83.2502853 C91.0061658,83.2502853 91.8108394,83.4237253 92.6018203,83.7219964 C93.5105584,84.0620301 94.3777619,84.5476621 95.092292,85.2829564 L108.918711,99.109319 C110.22294,96.3897342 111,93.3928737 111,90.1876569 C110.993154,79.1705658 102.41149,70.2489037 91.5819433,69.5136094 Z" id="Path"></path>
                </g>
            </g>
        </g>
    </g>
</svg>